<svg width="16" height="17" viewBox="0 0 16 17" fill="none" xmlns="http://www.w3.org/2000/svg">
<g clip-path="url(#clip0_31_813)">
<path d="M15.9927 8.65512C15.9927 7.98425 15.9382 7.49469 15.8204 6.987H8.15967V10.015H12.6564C12.5657 10.7675 12.0762 11.9008 10.9882 12.6623L10.973 12.7636L13.3952 14.6401L13.563 14.6568C15.1042 13.2334 15.9927 11.1392 15.9927 8.65512Z" fill="#4285F4"/>
<path d="M8.15967 16.6332C10.3627 16.6332 12.2121 15.9079 13.563 14.6568L10.9882 12.6623C10.2992 13.1428 9.37448 13.4782 8.15967 13.4782C6.00198 13.4782 4.17067 12.0549 3.51786 10.0876L3.42217 10.0957L0.903543 12.0449L0.870605 12.1365C2.21236 14.8018 4.96842 16.6332 8.15967 16.6332Z" fill="#34A853"/>
<path d="M3.51772 10.0877C3.34547 9.57998 3.24578 9.03598 3.24578 8.47392C3.24578 7.9118 3.34547 7.36786 3.50866 6.86017L3.5041 6.75205L0.95391 4.77155L0.870473 4.81123C0.317473 5.9173 0.000160217 7.15936 0.000160217 8.47392C0.000160217 9.78848 0.317473 11.0305 0.870473 12.1365L3.51772 10.0877Z" fill="#FBBC05"/>
<path d="M8.15967 3.46945C9.69179 3.46945 10.7253 4.13126 11.3146 4.68433L13.6174 2.43595C12.2031 1.12139 10.3627 0.314514 8.15967 0.314514C4.96842 0.314514 2.21236 2.14583 0.870605 4.8112L3.50879 6.86014C4.17067 4.89283 6.00198 3.46945 8.15967 3.46945Z" fill="#EB4335"/>
</g>
<defs>
<clipPath id="clip0_31_813">
<rect width="16" height="16.375" fill="white" transform="translate(0 0.314575)"/>
</clipPath>
</defs>
</svg>
