<svg width="184" height="114" viewBox="0 0 184 114" fill="none" xmlns="http://www.w3.org/2000/svg">
<path d="M133.782 40.4163H148.763C149.076 40.4163 149.346 40.1975 149.41 39.8918L151.603 29.521C151.751 28.817 152.759 28.8235 152.898 29.5293L154.396 37.0937C154.537 37.8061 155.557 37.8034 155.694 37.0903L158.779 21.066C158.92 20.3317 159.98 20.3595 160.083 21.1003L164.035 49.625C164.134 50.3404 165.145 50.4017 165.329 49.7035L167.658 40.9083C167.735 40.6183 167.997 40.4163 168.297 40.4163H183.825" stroke="#1AAC41" stroke-width="1.42981"/>
<path fill-rule="evenodd" clip-rule="evenodd" d="M24.9296 1.27616C21.4211 2.48817 14.7166 6.6356 13.081 8.60649C12.6402 9.13777 13.7123 8.7717 15.4632 7.79277C22.4672 3.87841 32.4526 2.02818 39.4963 3.33959C46.7581 4.69145 55.9606 9.9035 60.0395 14.975C61.3352 16.5853 61.3852 16.5922 62.4389 15.3007C64.4276 12.8629 71.1005 8.2555 75.553 6.24553C81.6391 3.49794 86.6222 2.52038 93.0435 2.81447C97.4987 3.01876 99.3353 3.47258 102.999 5.2762C108.289 7.8812 113.82 13.2283 117.5 19.2973C120.76 24.6725 120.779 23.9698 117.55 17.4395C114.169 10.6014 109.06 5.3283 103.123 2.54849C99.2379 0.729099 97.4665 0.329444 92.3073 0.107334C81.8276 -0.343743 73.3065 2.77335 65.3606 9.96452L61.3235 13.617L57.1843 9.59159C50.51 3.10102 42.8383 -0.0373123 33.7413 0.00244823C30.553 0.0161588 27.1569 0.506997 24.9296 1.27616ZM26.9601 5.51203C22.6399 6.36208 16.7574 9.23649 13.7185 11.9813L11.0683 14.3759H16.5545H22.0408V17.5176C22.0408 19.2459 22.2725 20.5436 22.5549 20.4017C30.0183 16.6532 36.8975 15.5365 43.0933 17.0673C49.3371 18.6104 52.9964 21.7611 57.7478 29.6844L62.0296 36.8248L65.2194 31.9418C71.6784 22.0551 78.9011 17.6177 88.5368 17.6177C94.732 17.6177 99.87 19.385 105.154 23.333C111.621 28.1646 117.609 37.681 119.065 45.4426C119.327 46.839 119.858 48.1778 120.245 48.4171C120.72 48.7105 120.834 46.0808 120.596 40.3546C120.085 28.0987 117.39 21.9379 108.586 12.8924C102.892 7.0428 99.2571 5.33173 91.6862 4.93618C80.7493 4.36513 73.9557 7.00098 66.3381 14.7728L62.1557 19.0402L57.0074 14.1215C49.5942 7.03869 44.0962 4.75657 34.723 4.87037C32.0838 4.90259 28.5903 5.1912 26.9601 5.51203ZM0.789469 26.0298V35.6272H10.0441H19.2987V26.0298V16.4325H10.0441H0.789469V26.0298ZM0.103943 41.653C0.103943 60.0443 17.8365 83.891 50.1474 108.951L56.6599 114.002L49.4269 106.52C45.4488 102.405 40.2573 96.4245 37.8908 93.2299C24.8768 75.6599 15.2808 55.2504 13.4676 41.2828L13.0001 37.6838H6.552H0.103943V41.653ZM17.5705 83.9568C23.9548 92.8824 34.5928 103.417 42.6066 108.749C47.8591 112.244 47.9057 112.087 42.9493 107.584C40.3101 105.186 33.0791 98.2713 26.8799 92.2188C20.6814 86.167 16.4921 82.4487 17.5705 83.9568Z" fill="#0161EF"/>
<path d="M42.2671 59.9467H42.6285L47.9047 46.2143L52.8917 46.3588L53.0363 61.8982L53.7229 71.2218H48.8443L49.025 61.8259L48.6274 52.3216L44.2909 64.2833L39.8459 64.5001L35.7984 52.3216L35.4732 61.8259L35.7262 71.2218H31.245L31.751 62.4403L31.9678 46.937L37.7137 46.0336L42.2671 59.9467ZM58.4957 78.1964L62.2179 69.8486L59.5437 62.5487L55.8937 53.7671L60.7001 52.8637L63.0129 60.5611L64.2055 64.211H64.6753L65.5426 61.5729L68.1445 52.8275L72.5895 53.3696L66.1931 70.1738L63.1575 79.1722L58.4957 78.1964ZM89.0013 46.2865C91.3141 46.2865 93.1572 46.9491 94.5304 48.2741C95.9037 49.5751 96.5903 51.37 96.5903 53.6587C96.5903 55.9474 95.723 57.9109 93.9883 59.5492C92.2537 61.1634 90.1336 61.9705 87.628 61.9705H85.5682L86.0018 71.2218H81.1593L81.593 62.4403L81.1593 46.2865H89.0013ZM87.7003 49.9365H85.9296L85.6766 58.4651H88.134C89.3386 58.4651 90.2661 58.0675 90.9166 57.2725C91.5912 56.4775 91.9285 55.3451 91.9285 53.8755C91.9285 51.2495 90.5191 49.9365 87.7003 49.9365ZM102.365 71.2218C100.943 71.2218 99.7749 70.7761 98.8594 69.8847C97.968 68.9692 97.5223 67.7525 97.5223 66.2347C97.5223 64.6929 98.2209 63.3678 99.6183 62.2596C101.016 61.1272 102.714 60.5611 104.714 60.5611H107.171V59.9467C107.171 58.7662 106.93 57.9591 106.448 57.5255C105.967 57.0918 105.063 56.875 103.738 56.875C103.184 56.875 102.521 56.9954 101.75 57.2364C101.004 57.4532 100.16 57.8025 99.2207 58.2844L98.1727 55.4295C99.2087 54.7067 100.461 54.0562 101.931 53.478C103.425 52.8998 104.653 52.6107 105.617 52.6107C109.4 52.6107 111.291 54.4417 111.291 58.1037V65.1867C111.291 66.5359 111.712 68.0417 112.556 69.704L108.725 71.3302C108.123 70.1738 107.677 69.1378 107.388 68.2223C106.063 70.222 104.388 71.2218 102.365 71.2218ZM103.883 67.5357C104.846 67.5357 105.942 67.0418 107.171 66.0541V63.6328C105.894 63.3437 104.858 63.1991 104.063 63.1991C102.545 63.1991 101.787 63.8737 101.787 65.2229C101.787 65.9216 101.979 66.4877 102.365 66.9214C102.75 67.3309 103.256 67.5357 103.883 67.5357ZM117.1 53.731V49.7919L121.979 48.8523L121.509 53.731H125.882L125.484 56.6943H121.364L121.184 64.2472C121.184 65.3795 121.292 66.1384 121.509 66.5239C121.726 66.8852 122.123 67.0659 122.701 67.0659C123.28 67.0659 124.051 66.9334 125.014 66.6684L125.231 69.2342C123.641 70.5593 122.244 71.2218 121.039 71.2218C119.834 71.2218 118.847 70.7881 118.076 69.9208C117.305 69.0294 116.919 67.873 116.919 66.4516L117.136 62.4041L117.1 56.6943H114.607L115.004 53.731H117.1ZM133.379 52.8275L132.945 61.8259L133.343 70.3184L128.5 71.2218L128.934 62.4403L128.537 53.731L133.379 52.8275ZM128.284 47.5514C128.284 46.7322 128.597 46.0095 129.223 45.3831C129.85 44.7326 130.572 44.4074 131.392 44.4074C132.211 44.4074 132.837 44.6362 133.271 45.094C133.704 45.5276 133.921 46.1902 133.921 47.0816C133.921 47.973 133.608 48.7439 132.982 49.3944C132.379 50.0208 131.669 50.334 130.849 50.334C130.054 50.334 129.428 50.069 128.97 49.539C128.513 49.0089 128.284 48.3464 128.284 47.5514ZM143.864 67.5357C144.563 67.5357 145.298 67.355 146.069 66.9936C146.84 66.6323 147.442 66.2709 147.876 65.9095L148.526 65.3674L150.188 67.3912C149.947 67.8007 149.574 68.2705 149.068 68.8006C148.562 69.3306 148.044 69.7883 147.514 70.1738C147.008 70.5352 146.322 70.8725 145.454 71.1857C144.611 71.4748 143.732 71.6193 142.816 71.6193C140.865 71.6193 139.275 70.8845 138.046 69.4149C136.817 67.9212 136.203 66.0059 136.203 63.6689C136.203 60.7297 137.058 58.1519 138.769 55.9354C140.479 53.7189 142.479 52.6107 144.768 52.6107C146.526 52.6107 147.888 53.1046 148.851 54.0924C149.839 55.0801 150.333 56.4654 150.333 58.2482C150.333 59.3083 150.152 60.5129 149.791 61.862L149.068 62.6209L140.034 63.4521C140.443 66.1745 141.72 67.5357 143.864 67.5357ZM143.864 56.3329C142.804 56.3329 141.913 56.7666 141.19 57.6339C140.467 58.4771 140.046 59.5613 139.925 60.8863L146.069 60.1274C146.141 59.5733 146.177 59.1155 146.177 58.7542C146.177 57.14 145.406 56.3329 143.864 56.3329ZM163.967 62.0789C163.967 60.4165 163.823 59.3083 163.534 58.7542C163.245 58.2 162.57 57.923 161.51 57.923C160.45 57.923 159.245 58.3446 157.896 59.1878V61.8259L158.294 70.3184L153.451 71.2218L153.885 62.4403C153.789 59.2119 153.524 56.3209 153.09 53.7671L157.463 52.8275C157.631 54.2249 157.752 55.5861 157.824 56.9111C158.185 56.4293 158.595 55.9595 159.053 55.5017C159.51 55.0199 160.233 54.4899 161.221 53.9117C162.209 53.3094 163.245 53.0082 164.329 53.0082C165.437 53.0082 166.365 53.4419 167.111 54.3092C167.858 55.1524 168.232 56.3088 168.232 57.7784L168.015 61.8259L168.412 70.499L163.534 71.4025L163.967 62.0789ZM173.813 53.731V49.7919L178.691 48.8523L178.222 53.731H182.594L182.197 56.6943H178.077L177.896 64.2472C177.896 65.3795 178.005 66.1384 178.222 66.5239C178.439 66.8852 178.836 67.0659 179.414 67.0659C179.992 67.0659 180.763 66.9334 181.727 66.6684L181.944 69.2342C180.354 70.5593 178.956 71.2218 177.752 71.2218C176.547 71.2218 175.56 70.7881 174.789 69.9208C174.018 69.0294 173.632 67.873 173.632 66.4516L173.849 62.4041L173.813 56.6943H171.319L171.717 53.731H173.813Z" fill="#0161EF"/>
</svg>
