<svg width="83" height="83" viewBox="0 0 83 83" fill="none" xmlns="http://www.w3.org/2000/svg">
<path d="M22.5 42.8355L36.618 53.4262C37.4927 54.0821 38.5829 54.3832 39.6703 54.2691C40.7576 54.155 41.7616 53.6341 42.481 52.8108L70.1667 21.1688" stroke="#21AE47" stroke-width="4.33333" stroke-linecap="round"/>
<path d="M80.5 41.5021C80.5002 49.6511 77.9477 57.5954 73.2012 64.2192C68.4547 70.8431 61.7525 75.8138 54.036 78.4332C46.3195 81.0525 37.9763 81.1889 30.1783 78.8233C22.3803 76.4577 15.5192 71.7088 10.5586 65.2437C5.598 58.7786 2.78715 50.922 2.52084 42.7774C2.25453 34.6328 4.54612 26.6093 9.07377 19.834C13.6014 13.0586 20.1377 7.87165 27.7645 5.00165C35.3913 2.13164 43.7256 1.72277 51.5967 3.83244" stroke="#21AE47" stroke-width="4.33333" stroke-linecap="round"/>
</svg>
